<?xml version="1.0" encoding="UTF-8" standalone="no"?>
<svg
   xmlns:dc="http://purl.org/dc/elements/1.1/"
   xmlns:cc="http://creativecommons.org/ns#"
   xmlns:rdf="http://www.w3.org/1999/02/22-rdf-syntax-ns#"
   xmlns:svg="http://www.w3.org/2000/svg"
   xmlns="http://www.w3.org/2000/svg"
   height="56"
   width="56"
   xml:space="preserve"
   viewBox="0 0 56 56"
   y="0px"
   x="0px"
   id="Capa_1"
   version="1.1"><metadata
     id="metadata61"><rdf:RDF><cc:Work
         rdf:about=""><dc:format>image/svg+xml</dc:format><dc:type
           rdf:resource="http://purl.org/dc/dcmitype/StillImage" /><dc:title></dc:title></cc:Work></rdf:RDF></metadata><defs
     id="defs59" /><g
     transform="translate(-6.4731352)"
     id="g24"><path
       id="path2"
       d="m 43.510424,-1.9485206e-8 h -29.022 c -0.808,0 -1.463,0.654999999485206 -1.463,1.926000019485206 V 55 c 0,0.345 0.655,1 1.463,1 h 40.074 c 0.808,0 1.463,-0.655 1.463,-1 V 12.978 c 0,-0.696 -0.093,-0.92 -0.257,-1.085 l -11.636,-11.63600002 c -0.165,-0.164 -0.389,-0.256999999485206 -0.622,-0.256999999485206 z"
       style="fill:#e6e6e6" /><polygon
       transform="translate(6.5254237)"
       id="polygon4"
       points="37.5,12 49.349,12 37.5,0.151 "
       style="fill:#808080" /><g
       id="g16" /><g
       id="g22" /></g><g
     transform="translate(-6.4731352)"
     id="g26" /><g
     transform="translate(-6.4731352)"
     id="g28" /><g
     transform="translate(-6.4731352)"
     id="g30" /><g
     transform="translate(-6.4731352)"
     id="g32" /><g
     transform="translate(-6.4731352)"
     id="g34" /><g
     transform="translate(-6.4731352)"
     id="g36" /><g
     transform="translate(-6.4731352)"
     id="g38" /><g
     transform="translate(-6.4731352)"
     id="g40" /><g
     transform="translate(-6.4731352)"
     id="g42" /><g
     transform="translate(-6.4731352)"
     id="g44" /><g
     transform="translate(-6.4731352)"
     id="g46" /><g
     transform="translate(-6.4731352)"
     id="g48" /><g
     transform="translate(-6.4731352)"
     id="g50" /><g
     transform="translate(-6.4731352)"
     id="g52" /><g
     transform="translate(-6.4731352)"
     id="g54" /><g
     transform="translate(-6.4731352)"
     style="display:inline"
     id="layer1" /><g
     transform="translate(-6.4731352)"
     style="display:none"
     id="layer2"><path
       id="path8"
       d="m 17.588983,43.195186 v 10.076 h -1.641 v -4.539 h -4.361 v 4.539 h -1.668 v -10.076 h 1.668 v 4.416 h 4.361 v -4.416 z"
       style="fill:#ffffff" /><path
       id="path10"
       d="m 27.240983,43.195186 v 1.121 h -3.007 v 8.955 h -1.654 v -8.955 h -3.008 v -1.121 z"
       style="fill:#ffffff" /><path
       id="path12"
       d="m 36.838983,43.195186 h 1.668 v 10.076 h -1.668 v -6.932 l -2.256,5.605 h -1.449 l -2.27,-5.605 v 6.932 h -1.668 v -10.076 h 1.668 l 2.994,6.891 z"
       style="fill:#ffffff" /><path
       id="path14"
       d="m 42.703983,43.195186 v 8.832 h 4.635 v 1.244 h -6.303 v -10.076 z"
       style="fill:#ffffff" /></g><g
     style="display:none"
     transform="translate(-6.4731352)"
     id="layer3"><text
       id="text947"
       y="24.271313"
       x="16.990271"
       style="font-style:normal;font-variant:normal;font-weight:bold;font-stretch:normal;font-size:16px;line-height:1.25;font-family:'Open Sans';-inkscape-font-specification:'Open Sans Bold';letter-spacing:0px;word-spacing:0px;fill:#ffffff;fill-opacity:1;stroke:none"
       xml:space="preserve"><tspan
         y="38.448097"
         x="16.990271"
         id="tspan945" /></text>
<text
       id="text951"
       y="53.508476"
       x="20.152542"
       style="font-style:normal;font-variant:normal;font-weight:bold;font-stretch:normal;font-size:16px;line-height:1.25;font-family:'Open Sans';-inkscape-font-specification:'Open Sans Bold';letter-spacing:0px;word-spacing:0px;fill:#000000;fill-opacity:1;stroke:none"
       xml:space="preserve"><tspan
         style="font-size:14.66666698px;fill:#ffffff;fill-opacity:1"
         y="53.508476"
         x="20.152542"
         id="tspan949">XUL</tspan></text>
</g><g
     id="layer4" /><g
     id="layer5"><path
       d="m 43.771053,18.800504 v 0 c 0,0 0.205378,0 0.205378,0 0,0 0,0 0,0 0.205383,0 0.205383,0 0.205383,0 0,0 0,0 0,0 0,0 0,0 0.205373,0 0,0 0,0 0,0 0,0 0,0 0,0 0,0 0.205382,0 0.205382,0 0,0 0,0 0,0 0,0.228433 0,0.228433 0,0.228433 0,0 0,0 0,0 0,0 0,0 0,0 0,0 0.205378,0 0.205378,0 0,0.228432 0,0.456865 0,0.686347 0,0 0,0 0,0 0,0 0,0.228432 0.205383,0.228432 0,0 0,0.228432 0,0.228432 0,0 0,0 0,0 0,0.228432 0,0.456864 0,0.686343 0,0 0,0.228432 0,0.228432 0,0 0,0 0,0 0,0.228438 0,0.456865 0,0.686349 v 0 c 0,0 0,0 0,0 0,0 0,0.228438 0,0.456864 v 0 c 0,0 0,0 0,0 0,0.228433 0,0.228433 0,0.228433 0,0 0,0 0,0 0,0 0,0 0,0 -0.205383,0.228437 -0.205383,0.228437 -0.205383,0.456864 0,0 0,0 0,0 0,0.228437 0,0.228437 0,0.456869 0,0 0,0 0,0 -0.205378,0 -0.205378,0 -0.205378,0.228433 0,0 0,0 0,0 0,0 0,0 0,0 0,0 0,0 0,0 0,0 0,0.228432 -0.205382,0.228432 0,0 0,0 0,0 0,0 0,0 0,0 0,0.228437 0,0.228437 0,0.456864 -0.205373,0 -0.205373,0 -0.205373,0.228438 0,0 -0.205383,0.228432 -0.205383,0.228432 0,0 0,0 0,0 0,0 -0.205378,-0.228432 -0.205378,-0.228432 0,0 0,-0.228438 -0.205382,-0.228438 0,0 0,0 0,0 0,0 0,0 0,0 0,0 0,0 0,0 -0.205384,-0.456864 -0.411808,-0.686349 -0.617186,-0.914781 0,0 0,0 0,0 0,0 0,0 0,0 -0.205382,0 -0.205382,0 -0.205382,0 0,0 -0.205381,-0.228432 -0.411807,-0.228432 0.205381,0 0,0 0,0 0,0 0,0 0,0 0,-0.228432 0,-0.228432 -0.20538,-0.228432 0,0 0,0 0,0 0,0 0,0 0,0 0,0 0,0 0,0 0,0 0,0 0,0 0,0 0.20538,0 0.20538,0 0,0 0,0.228432 0,0.228432 v 0 c 0,0 0,0 0,0 0.205381,0 0.205381,0 0.205381,0.228432 0,0 0,0 0,0 0,0 0,0 0,0 0.205379,0 0.205379,0 0.205379,0 0,0 0,0.228432 0,0.228432 0.20538,0 0.20538,0 0.20538,0.228438 0,0 0,0 0,0 0,0 0,0 0,0 0.205384,0 0.205384,0 0.205384,0 0,0.228426 0,0.228426 0,0.228426 0,0 0,0 0,0 0.205371,0 0.205371,0.228438 0.205371,0.456876 0,0 0,0 0,0 0,0.228426 0.205382,0.228426 0.205382,0.456864 0,0 0,0.228432 0,0.228432 0,0.228427 -0.205382,0.228427 -0.205382,0.456864 0,0 -0.205371,0 -0.205371,0 0,0.228432 -0.205384,0.228432 -0.411815,0.456864 0,0 0,0 0,0 0,0 0,0 0,0 -0.205376,0 -0.205376,0 -0.205376,0 0,0.228432 -0.20538,0.456865 -0.411807,0.686344 -0.20538,0 -0.411811,0.228432 -0.617187,0.456864 -0.205379,0.228432 -0.41181,0.228432 -0.617186,0.456864 -0.205379,0.228438 -0.617189,0.456864 -1.028996,0.686349 -0.205379,0.228432 -0.411807,0.45687 -0.617187,0.45687 -0.205379,0.228426 -0.411807,0.228426 -0.617186,0.456858 -0.205381,0.228438 -0.617188,0.456864 -0.823616,0.686344 0,0 0,0 -0.20538,0 0,0.228437 0,0.228437 0,0.228437 0,0 -0.205379,0 -0.205379,0 0,0 0,0 0,0.228432 -0.411807,0.228432 -0.823614,0.45687 -1.235003,0.686349 -0.205379,0.228427 -0.411807,0.456864 -0.617188,0.456864 0,0.228432 0,0.228432 -0.205379,0.228432 -0.205378,0.228427 -0.411806,0.456865 -0.823614,0.686349 0,0 0,0 0,0 -0.205379,0.228427 -0.205379,0.228427 -0.411807,0.456859 -0.205379,0 -0.205379,0.228438 -0.411807,0.228438 0,0 0,0 0,0.228426 -0.205381,0 -0.205381,0 -0.205381,0 0,0 0,0.228437 -0.205379,0.228437 0,0 0,0 0,0 -0.823613,0.686339 -1.440802,1.600599 -2.264206,2.286523 -0.20538,0.228431 -0.411808,0.456864 -0.617187,0.686349 -0.205379,0.228431 -0.205379,0.228431 -0.205379,0.228431 0,0 0,0 0,0 -0.205381,0.228433 -0.411809,0.456864 -0.617188,0.686343 0,0 0,0 -0.20538,0 0,0.228433 -0.205379,0.228433 -0.205379,0.456864 v 0 c -0.205381,0 -0.205381,0.228433 -0.205381,0.228433 -0.205379,0.228437 -0.411807,0.456864 -0.617187,0.686349 -0.617186,0.456864 -1.440801,1.143313 -2.058303,1.600597 0,0 -0.205379,0 -0.205379,0.228433 0,0 0,0 0,0 0,0 -0.205381,0 -0.205381,0 0,0 0,0.228437 -0.205379,0.228437 0,0 0,0 0,0 -0.20538,0 -0.411807,0.228433 -0.617187,0.228433 0,0 0,0.228431 0,0.228431 -0.20538,0 -0.411808,0 -0.411808,0 0,0 0,0 0,0 v 0 c 0,0 0,0 0,0.228433 -0.205379,0 -0.205379,0 -0.205379,0 0,0 0,0 -0.20538,0 0,0 0,0 0,0 0,0 0,0 0,0 0,0 0,0 0,0 0,0 -0.205379,0 -0.205379,0 0,0 0,0 0,0 0,0 0,0 0,0 -0.205381,0 -0.205381,0.228431 -0.205381,0.228431 -0.205379,0 -0.205379,0 -0.411807,0 -0.205379,0 -0.617187,0 -1.028994,0.228433 0,0 0,0 0,0 -0.20538,0 -0.411807,0 -0.411807,0 -0.205381,0 -0.411808,0 -0.617187,0 0,0 0,0 0,0 -0.20538,0.228432 -0.411808,0.228432 -0.617188,0.228432 -0.205379,0 -0.205379,0 -0.205379,0 -0.20538,0 -0.411808,0 -0.617188,0.228432 0,0 -0.205379,0 -0.205379,0 -0.20538,0.228432 -0.411808,0.228432 -0.411808,0.228432 l -0.823614,0.228433 h 0.20538 c 0,0 -0.20538,0 -0.20538,0 -0.20538,0.456864 -0.617187,0.91478 -1.028994,1.371952 0,0 0,0 0,0 0,0 0,0 0,0 -0.205381,0.45687 -0.411808,0.686349 -0.617188,1.14332 -0.205379,0 -0.205379,0.228437 -0.205379,0.228437 0,0 0,0 0,0 0,0 0,0 0,0 -0.20538,0.456864 -0.411807,0.686343 -0.617187,0.91477 0,0 -0.20538,0.228437 -0.20538,0.228437 0,0.228439 -0.20538,0.456864 -0.411808,0.686344 0,0 0,0 0,0 0,0 0,0 0,0 -0.20538,0.456865 -0.411807,0.686343 -0.617187,0.914775 0,0 0,0 0,0 0,0 0,0 0,0 0,0 0,0 0,0 0,0.228444 0,0.228444 -0.205379,0.228444 0,0.228426 0,0.228426 0,0.456859 0,0 0,0 -0.20538,0 0,0 0,0 0,0 0,0 0,0.228437 0,0.228437 0,0 -0.20538,0.228427 -0.20538,0.228427 l -1.852504,2.286527 -0.20538,-0.228433 c 0,0 0.20538,-0.228432 0.20538,-0.456869 0.20538,0 0.20538,-0.228427 0.20538,-0.228427 0,0 0,0 0,0 0.205379,-0.228433 0.205379,-0.45687 0.411807,-0.45687 0,-0.228427 0,-0.228427 0,-0.228427 0,0 0,0 0,0 0.20538,-0.228437 0.20538,-0.228437 0.20538,-0.228437 0,0 0,0 0,0 0.20538,-0.456859 0.411807,-0.686343 0.617187,-1.143314 0,0 0.205379,-0.228431 0.205379,-0.228431 0,0 0,0 0,-0.228433 0.20538,0 0.20538,-0.228432 0.20538,-0.228432 0.20538,-0.228432 0.411807,-0.456864 0.617187,-0.914781 0,-0.228432 0.411808,-0.686343 0.617187,-0.914776 0.411808,-0.686349 0.823615,-1.371852 1.235004,-2.057882 0.205379,-0.228437 0.205379,-0.228437 0.205379,-0.228437 0,0 0,0 0,0 0.20538,-0.228433 0.20538,-0.456858 0.411808,-0.456858 0.205379,-0.456871 0.411807,-0.914788 0.617186,-1.143219 0,0 0,0 0,0 0,-0.228427 0,-0.228427 0,-0.228427 0,0 0,0 0,0 0,0 0,0 0,0 0,0 0,-0.228438 0,-0.228438 0,0 0,0 0,-0.228432 0,0 0,0 0,0 0,0 0,0 0,-0.228432 0,0 0,0 0,0 0,0 0,0 0,0 0,-0.228433 0,-0.228433 0,-0.228433 0,-0.228431 0,-0.228431 0,-0.456864 0,0 0,0 0,0 0,0 0,-0.228431 0,-0.228431 0,0 0.20538,0 0.20538,-0.228438 0,0 0,0 0,0 0,-0.228426 0,-0.228426 0,-0.228426 0,-0.228433 0,-0.228433 0,-0.228433 0.20538,0 0.20538,-0.228438 0.20538,-0.228438 0,-0.228426 0.20538,-0.456864 0.20538,-0.686342 0.205379,0 0.205379,-0.228433 0.205379,-0.228433 0.20538,-0.228432 0.20538,-0.456869 0.20538,-0.456869 0.20538,0 0.20538,0 0.20538,0 0,-0.228427 0,-0.228427 0,-0.228427 0,0 0.20538,-0.228433 0.20538,-0.228433 0,-0.228437 0.205379,-0.228437 0.205379,-0.456864 0,0 0,0 0,0 0,0 0,-0.228437 0,-0.228437 0.205381,0 0.205381,0 0.205381,0 0,0 0,0 0,0 0.205378,-0.228432 0.205378,-0.456858 0.411807,-0.456858 0,-0.228438 0.205379,-0.456871 0.411807,-0.686349 0,0 0,0 0,0 0,-0.228433 0.205379,-0.228433 0.205379,-0.456864 0,0 0.20538,0 0.20538,-0.228433 0,0 0,0 0,0 0,0 0,0 0,-0.228438 0.20538,0 0.20538,0 0.20538,0 0,-0.228431 0.20538,-0.456858 0.411807,-0.686342 0,0 0.20538,0 0.20538,-0.228433 0,0 0.20538,0 0.20538,0 0,0 0,0 0,0 0,-0.228432 0,-0.228432 0.20538,-0.456865 0,0 0,0 0,0 0,0 0,0 0,0 0,0 0,0 0,0 0.205379,0 0.205379,-0.228431 0.205379,-0.228431 0,0 0,0 0,0 0.20538,-0.228438 0.20538,-0.228438 0.411808,-0.456864 0,0 0,0 0,0 0,0 0,0 0,0 0.20538,-0.228432 0.411807,-0.686349 0.823614,-0.914781 0,0 0,0 0,0 0,0 0,-0.228432 0,-0.228432 0.20538,0 0.20538,0 0.20538,0 0,0 0,-0.228432 0,-0.228432 0,0 0,0 0,0 0.20538,-0.228432 0.411807,-0.45687 0.617187,-0.686344 0,0 0,0 0,0 0.20538,0 0.20538,0 0.20538,0 0,0 0,-0.228432 0,-0.228432 0.20538,0 0.20538,-0.228432 0.411807,-0.228432 0,-0.228432 0,-0.228432 0,-0.228432 0,0 0,0 0,0 0.411808,-0.45687 0.823615,-0.686354 1.028994,-1.143319 0.20538,0 0.20538,0 0.20538,0 0,0 0,0 0,0 0,-0.228432 0,-0.228432 0,-0.228432 0,0 0.20538,0 0.20538,0 0,-0.228432 0.20538,-0.456865 0.411807,-0.456865 0,-0.228432 0,-0.228432 0.20538,-0.228432 0,0 0,0 0,-0.228432 0,0 0,0 0.205381,0 0,0 0,0 0,-0.228432 0,0 0.205379,0 0.205379,0 0,0 0,0 0,0 0,-0.228432 0.20538,-0.228432 0.20538,-0.228432 0.205379,-0.228432 0.411807,-0.228432 0.617186,-0.456864 0,-0.228444 0.205381,-0.228444 0.205381,-0.45687 0,0 0,0 0,0 0.205379,0 0.205379,0 0.205379,0 0,0 0.20538,-0.228432 0.20538,-0.228432 0,0 0.205379,0 0.205379,-0.228438 0,0 0,0 0.205381,0 0,0 0,0 0,0 0.205379,-0.228426 0.205379,-0.228426 0.411807,-0.456864 0.205379,-0.228432 0.411807,-0.456859 0.823614,-0.456859 0,0 0,0 0,0 0,0 0,-0.228437 0,-0.228437 0,0 0.20538,0 0.20538,0 0,0 0,0 0,0 0.205379,-0.228433 0.205379,-0.228433 0.205379,-0.228433 0,0 0,0 0,0 0,0 0,0 0,0 0.205381,0 0.205381,0 0.205381,-0.228432 0,0 0,0 0,0 0,0 0,0 0,0 0,0 0,0 0,0 0,0 0,0 0,0 0.205379,-0.228432 0.411807,-0.228432 0.823615,-0.456864 0,0 0,0 0,0 0,0 0,0 0,0 0.205379,0 0.205379,-0.228432 0.205379,-0.228432 0,0 0.205379,0 0.205379,0 0,0 0,-0.228432 0.205381,-0.228432 0.205379,-0.228432 0.617187,-0.456864 0.823614,-0.456864 0.20538,-0.228438 0.20538,-0.228438 0.20538,-0.228438 0.205379,0 0.205379,0 0.205379,0 0,-0.228426 0,-0.228426 0.205381,-0.228426 0.205379,0 0.205379,-0.228438 0.411807,-0.228438 0,0 0,0 0,0 0,0 0.205379,0 0.205379,0 0,-0.228432 0.20538,-0.228432 0.411808,-0.456864 0,0 0.205378,0 0.205378,0 0,0 0,0 0,0 0,0 0,0 0,0 0.205381,-0.228432 0.617188,-0.45687 1.028995,-0.686344 0.20538,0 0.411807,-0.228432 0.617187,-0.228432 0.205379,0 0.205379,-0.228437 0.411807,-0.228437 0,0 0,0 0,0 0.205381,0 0.205381,-0.228427 0.411808,-0.228427 0,0 0,0 0,0 0,0 0,0 0,0 0.20538,0 0.20538,0 0.20538,-0.228437 0.20538,0 0.411806,0 0.411806,0 0,0 0.205381,-0.228433 0.205381,-0.228433 0,0 0,0 0,0 0.205379,0 0.205379,0 0.205379,0 0,0 0,0 0,0 0.205381,-0.228432 0.617187,-0.228432 0.823615,-0.456864 0.205379,0 0.411807,0 0.617188,-0.228432 0,0 0,0 0,0 0,0 0.205379,0 0.205379,0 0,0 0.205377,0 0.205377,-0.228433 0.205381,0 0.411812,0 0.617186,-0.228433 0,0 0,0.228433 0,0.228433 0,0 0,0 0,-0.228433 0,0.228433 0,0.228433 0,0.456866 0,0 0,0 0,0 0,0 0,0 0,0 0,0 0,0.228432 0,0.228432 0,0 0,0 0,0 0,0 0,0 0,0.228432 0,0 0,0.228432 0,0.456865 0,0 0,0 -0.205374,0 0,0 0,0 0,0 0,0 0,0 0,0 0,0.228437 0,0.228437 0,0.228437 0,0 0,0 0,0 0,0.228427 0,0.228427 0,0.228427 0,0 0,0 0.205374,0 0,0 0,-0.228427 0,-0.228427 0,0 0,0 0,0 0,0 0,0 0,0 0,-0.228437 0,-0.228437 0,-0.228437 0,0 0,0 0,-0.228433 0,0 0,0 0,0 0.205381,0 0.205381,0 0.205381,0 0,0 0,0 0,0 0,-0.228432 0,-0.228432 0,-0.228432 0.20538,-0.456864 0.20538,-0.686345 0.20538,-0.914778 0.205381,0 0.205381,0 0.205381,0 0,-0.228433 0.205381,-0.228433 0.205381,-0.228433 0.20538,0 0.20538,0 0.20538,0 0.205379,0 0.205379,0 0.205379,0 0.205376,0 0.205376,0 0.41181,-0.228432 0,0 0,0 0,0 0,0 0,0 0,0 0.205372,0 0.411803,0 0.617186,0 0,0 0,0 0,0 0.205378,0 0.205378,0 0.205378,0 0,0 0,0 0,0 z m -2.675809,2.515171 c 0,0 0,0 0,0 0,0 0,0 0,0 0,0 0,0 0,0 z m 1.235005,5.259083 z m -0.411807,0.228438 z m -20.377546,7.774356 z m -0.411807,0.686343 z m 9.056723,1.600597 z m -2.264208,2.286523 z m -0.823615,0.914786 z m -0.205379,0 z m 0,0 z m 0,0 v 0.228432 z m 0,0.228432 z m -0.617187,0.228426 z m 0,0.228439 z m -0.20538,0 z m 0,0 z m -0.411807,0.228431 z m 0,0 z m 0,0 z m -0.617188,0.456864 z m 0,0 z m 0,0 z m -0.205379,0 z m -0.20538,0 v 0.228433 z"
       id="path4-9"
       style="fill:#e91e63;fill-opacity:1;stroke-width:2.16944742" /></g></svg>