<?xml version="1.0" encoding="UTF-8" standalone="no"?>
<!-- Created with Inkscape (http://www.inkscape.org/) -->

<svg
   xmlns:dc="http://purl.org/dc/elements/1.1/"
   xmlns:cc="http://creativecommons.org/ns#"
   xmlns:rdf="http://www.w3.org/1999/02/22-rdf-syntax-ns#"
   xmlns:svg="http://www.w3.org/2000/svg"
   xmlns="http://www.w3.org/2000/svg"
   xmlns:sodipodi="http://sodipodi.sourceforge.net/DTD/sodipodi-0.dtd"
   xmlns:inkscape="http://www.inkscape.org/namespaces/inkscape"
   width="87.690468mm"
   height="87.690468mm"
   viewBox="0 0 87.690468 87.690468"
   version="1.1"
   id="svg4791"
   inkscape:version="0.92.2 (5c3e80d, 2017-08-06)"
   sodipodi:docname="cron.svg">
  <defs
     id="defs4785" />
  <sodipodi:namedview
     id="base"
     pagecolor="#ffffff"
     bordercolor="#666666"
     borderopacity="1.0"
     inkscape:pageopacity="0.0"
     inkscape:pageshadow="2"
     inkscape:zoom="0.98994948"
     inkscape:cx="105.7855"
     inkscape:cy="161.61436"
     inkscape:document-units="mm"
     inkscape:current-layer="layer1"
     showgrid="false"
     fit-margin-top="0"
     fit-margin-left="0"
     fit-margin-right="0"
     fit-margin-bottom="0"
     showguides="true"
     inkscape:guide-bbox="true"
     inkscape:window-width="1920"
     inkscape:window-height="1017"
     inkscape:window-x="-8"
     inkscape:window-y="-8"
     inkscape:window-maximized="1">
    <sodipodi:guide
       position="24.001489,7.1815479"
       orientation="0,1"
       id="guide5343"
       inkscape:locked="false" />
    <sodipodi:guide
       position="7.370536,21.355656"
       orientation="1,0"
       id="guide5345"
       inkscape:locked="false" />
  </sodipodi:namedview>
  <metadata
     id="metadata4788">
    <rdf:RDF>
      <cc:Work
         rdf:about="">
        <dc:format>image/svg+xml</dc:format>
        <dc:type
           rdf:resource="http://purl.org/dc/dcmitype/StillImage" />
        <dc:title></dc:title>
      </cc:Work>
    </rdf:RDF>
  </metadata>
  <g
     inkscape:label="Laag 1"
     inkscape:groupmode="layer"
     id="layer1"
     transform="translate(-26.458332,-84.577377)">
    <path
       style="fill:#d35f5f;fill-opacity:1;stroke-width:0.99999994"
       d="M 0 0 L 0 331.42773 L 331.42773 331.42773 L 331.42773 0 L 0 0 z "
       transform="matrix(0.26458333,0,0,0.26458333,26.458332,84.577377)"
       id="rect4793" />
  </g>
  <g
     inkscape:groupmode="layer"
     id="layer9"
     inkscape:label="Laag 9"
     style="display:none">
    <g
       transform="matrix(0.21677597,0,0,0.21677597,12.611382,15.57149)"
       id="g16"
       style="fill:#ffffff">
      <g
         id="g14"
         style="fill:#ffffff">
        <polygon
           points="81.491,88.631 210.084,88.631 146.622,284.844 "
           id="polygon2"
           style="fill:#ffffff" />
        <polygon
           points="188.515,64.035 103.7,64.035 146.658,21.08 "
           id="polygon4"
           style="fill:#ffffff" />
        <polygon
           points="0,88.631 55.581,88.631 107.681,245.608 "
           id="polygon6"
           style="fill:#ffffff" />
        <polygon
           points="184.521,247.548 235.929,88.631 293.538,88.631 "
           id="polygon8"
           style="fill:#ffffff" />
        <polygon
           points="168.938,8.695 219.079,8.695 283.648,64.035 222.851,64.035 "
           id="polygon10"
           style="fill:#ffffff" />
        <polygon
           points="68.923,64.035 7.969,64.035 67.563,8.695 124.263,8.695 "
           id="polygon12"
           style="fill:#ffffff" />
      </g>
    </g>
  </g>
  <g
     inkscape:groupmode="layer"
     id="layer6"
     inkscape:label="Laag 6"
     style="display:inline">
    <text
       xml:space="preserve"
       style="font-style:normal;font-variant:normal;font-weight:normal;font-stretch:normal;font-size:25.39999962px;line-height:1.25;font-family:Roboto;-inkscape-font-specification:Roboto;letter-spacing:0px;word-spacing:0px;fill:#ffffff;fill-opacity:1;stroke:none;stroke-width:0.26458332"
       x="6.3025656"
       y="80.216431"
       id="text6091"><tspan
         sodipodi:role="line"
         id="tspan6089"
         x="6.3025656"
         y="80.216431"
         style="font-size:28.22222519px;letter-spacing:0.26458332px;fill:#000000;stroke-width:0.26458332">CRON</tspan></text>
  </g>
  <g
     inkscape:groupmode="layer"
     id="layer5"
     inkscape:label="Laag 5"
     style="display:none">
    <g
       id="g4264"
       transform="matrix(0.16272744,0,0,0.16272744,1.2038408,3.0141048)"
       style="fill:#1a1a1a">
      <polygon
         points="354.486,366.163 367.991,215 191.991,215 188,164 371.991,164 376.199,114.316 135.421,114.188 147.991,264 314.984,264 309.411,327.986 255.991,342.734 202.225,328.064 198.801,289 150.55,289 157.313,366.336 255.991,394.146 "
         id="polygon4268"
         style="fill:#1a1a1a" />
    </g>
  </g>
  <g
     inkscape:groupmode="layer"
     id="layer7"
     inkscape:label="Laag 7"
     style="display:none">
    <path
       d="m 28.881277,72.342786 c -1.125344,-0.291836 -1.01217,-0.607338 0.842764,-2.344683 3.196895,-2.989727 3.728908,-5.965309 2.820232,-15.758411 -0.725139,-7.810935 -0.88992,-8.408878 -2.109275,-7.754437 -2.64602,1.41718 -5.946482,-0.409637 -9.698932,-5.357953 -1.85504,-2.448267 -2.029252,-3.163922 -1.713821,-6.972854 0.193075,-2.335286 0.593281,-5.155501 0.885116,-6.266646 0.447362,-1.704389 0.306071,-2.01982 -0.932272,-2.01982 -0.805038,0 -1.878582,-0.503772 -2.387069,-1.115915 -1.280695,-1.544235 1.002916,-4.025529 3.705364,-4.025529 1.097052,0 2.410613,-0.494341 2.914384,-1.101678 1.299379,-1.563099 3.281635,-1.365397 5.508622,0.550928 2.368226,2.038647 3.173336,6.756289 1.84561,10.786517 -1.501884,4.55756 -0.46142,5.004833 1.643175,0.701472 1.177128,-2.405897 2.839059,-4.505759 4.209136,-5.315584 1.242969,-0.734392 3.060356,-2.603633 4.039659,-4.152639 0.97925,-1.549039 2.203446,-3.088595 2.726062,-3.422872 1.600824,-1.021601 5.998265,-2.429438 7.636724,-2.443567 2.236401,-0.04627 5.235525,2.598935 5.767556,5.03309 0.254287,1.148834 1.600822,3.860732 2.994424,6.021808 1.393692,2.161058 2.533025,4.31272 2.533025,4.774122 0,0.461421 0.988681,2.090449 2.203445,3.611213 1.812653,2.283486 2.19873,3.432285 2.170489,6.525579 -0.03381,4.24211 -2.316442,9.647131 -3.154509,7.467229 -0.263719,-0.687415 -0.154814,-1.859738 0.244858,-2.603634 0.833332,-1.558471 0.09965,-8.470091 -0.805038,-7.566114 -0.630827,0.630826 -1.040465,7.373075 -0.866253,14.171734 0.230799,8.823195 -0.1977,17.137921 -0.894547,17.363915 -1.779714,0.564987 -2.556565,-0.899351 -1.826799,-3.446414 1.097051,-3.832491 0.871057,-14.025781 -0.348422,-15.636001 -0.564987,-0.743823 -1.242971,-2.641305 -1.50669,-4.21855 -0.268346,-1.577334 -0.772118,-3.041511 -1.125345,-3.258092 -1.158265,-0.715709 -2.904971,3.91723 -2.904971,7.697938 0,2.96147 -0.447363,4.32685 -2.203446,6.75629 -2.485937,3.432285 -2.678976,4.444562 -1.101677,5.758142 1.228911,1.021601 1.468964,3.356959 0.409637,4.0114 -0.381344,0.235425 -1.370025,-0.301267 -2.203446,-1.195813 -1.177128,-1.261831 -1.511315,-1.365397 -1.511315,-0.470852 0,1.341909 -2.721346,2.250531 -4.223266,1.412555 -0.805038,-0.447362 -0.612142,-0.847568 0.861626,-1.817369 2.631891,-1.723251 2.377639,-3.135681 -1.139403,-6.351385 -2.740191,-2.504784 -2.985012,-3.008556 -2.533023,-5.235543 1.421806,-7.052912 1.41718,-7.236536 -0.225995,-7.236536 -1.073563,0 -1.54904,0.461419 -1.54904,1.516119 0,0.833333 -0.362481,2.198748 -0.809843,3.032097 -0.786175,1.468964 -1.021601,2.65072 -2.923816,14.722593 -0.946329,6.017109 -1.181755,6.247801 -5.277912,5.179043 m 19.713313,-12.81107 c 0.951133,-1.845609 1.092246,-3.422872 0.68261,-7.787394 -0.541497,-5.795812 -0.941703,-5.998265 -2.528308,-1.280693 -0.541497,1.614881 -1.600824,3.724192 -2.354114,4.684668 -1.746741,2.241116 -1.713821,2.9191 0.230621,4.990721 2.085732,2.217557 2.537722,2.151645 3.969031,-0.612142"
       id="path2-2"
       inkscape:connector-curvature="0"
       style="fill:#1a1a1a;stroke-width:4.70821619" />
  </g>
  <g
     inkscape:groupmode="layer"
     id="layer8"
     inkscape:label="Laag 8"
     style="display:none">
    <path
       d="m 14.448672,29.567453 v 30.586243 h 7.646561 v -19.78166 l 7.646561,7.646561 7.646561,-7.646561 v 19.78166 h 7.64656 V 29.567453 h -7.64656 l -7.638912,7.638912 -7.638932,-7.638912 z m 45.879365,0 v 15.293121 h -7.64656 L 64.151308,60.153696 75.62116,44.860574 H 67.974598 V 29.567453 Z"
       id="path2-5"
       inkscape:connector-curvature="0"
       style="fill:#000000;stroke-width:3.82328033" />
  </g>
  <g
     inkscape:groupmode="layer"
     id="layer2"
     inkscape:label="Laag 2"
     style="display:none">
    <text
       xml:space="preserve"
       style="font-style:normal;font-variant:normal;font-weight:normal;font-stretch:normal;font-size:50.79999924px;line-height:1.25;font-family:Consolas;-inkscape-font-specification:Consolas;letter-spacing:0px;word-spacing:0px;fill:#333333;fill-opacity:1;stroke:none;stroke-width:0.26458332"
       x="3.8377323"
       y="80.43779"
       id="text5341"><tspan
         sodipodi:role="line"
         id="tspan5339"
         x="3.8377323"
         y="80.43779"
         style="font-size:46.21388626px;letter-spacing:0.79374999px;fill:#ffffff;stroke-width:0.26458332">RB</tspan></text>
  </g>
  <g
     style="display:none"
     inkscape:label="Laag 2 kopiëren"
     id="g6053"
     inkscape:groupmode="layer">
    <text
       id="text6051"
       y="80.43779"
       x="3.3085656"
       style="font-style:normal;font-variant:normal;font-weight:normal;font-stretch:normal;font-size:50.79999924px;line-height:1.25;font-family:Consolas;-inkscape-font-specification:Consolas;letter-spacing:0px;word-spacing:0px;fill:#ffffff;fill-opacity:1;stroke:none;stroke-width:0.26458332"
       xml:space="preserve"><tspan
         style="font-style:normal;font-variant:normal;font-weight:normal;font-stretch:normal;font-size:46.21388626px;font-family:FontAwesome;-inkscape-font-specification:FontAwesome;letter-spacing:0.79374999px;fill:#000000;stroke-width:0.26458332"
         y="124.51572"
         x="3.3085656"
         id="tspan6049"
         sodipodi:role="line" /></text>
    <g
       transform="matrix(0.19690379,0,0,0.19690379,12.577124,14.142001)"
       id="g8"
       style="fill:#ffffff">
      <path
         inkscape:connector-curvature="0"
         d="m 175.682,80.547 c -7.981,-2.217 -16.249,2.456 -18.467,10.438 l -33.334,120 c -2.217,7.982 2.456,16.25 10.438,18.467 1.343,0.373 2.694,0.551 4.023,0.551 6.57,0 12.6,-4.35 14.444,-10.989 l 33.334,-120 c 2.217,-7.981 -2.456,-16.25 -10.438,-18.467 z"
         id="path2"
         style="fill:#ffffff" />
      <path
         inkscape:connector-curvature="0"
         d="m 74.591,83.467 c -6.37,-5.298 -15.828,-4.428 -21.124,1.942 l -50,60.128 c -4.63,5.568 -4.622,13.648 0.02,19.206 l 50,59.872 c 2.967,3.553 7.229,5.386 11.521,5.386 3.391,0 6.801,-1.144 9.607,-3.487 6.359,-5.31 7.209,-14.77 1.899,-21.128 L 34.527,155.109 76.534,104.592 C 81.83,98.221 80.96,88.763 74.591,83.467 Z"
         id="path4-6"
         style="fill:#ffffff" />
      <path
         inkscape:connector-curvature="0"
         d="m 306.513,145.257 -50,-59.871 c -5.31,-6.359 -14.77,-7.208 -21.128,-1.898 -6.359,5.31 -7.208,14.77 -1.898,21.128 l 41.987,50.277 -42.007,50.517 c -5.297,6.37 -4.427,15.828 1.942,21.124 2.802,2.331 6.202,3.467 9.583,3.467 4.303,0 8.575,-1.842 11.541,-5.41 l 50,-60.128 c 4.63,-5.569 4.622,-13.649 -0.02,-19.206 z"
         id="path6"
         style="fill:#ffffff" />
    </g>
  </g>
  <g
     inkscape:groupmode="layer"
     id="layer3"
     inkscape:label="Laag 3"
     style="display:none">
    <g
       id="miu"
       style="fill:#ffffff;fill-rule:evenodd;stroke:none;stroke-width:1"
       transform="matrix(5.1306492,0,0,4.4336893,9.156598,20.167769)"
       inkscape:transform-center-x="-580.46671"
       inkscape:transform-center-y="73.193695">
      <g
         id="Artboard-1"
         transform="translate(-503,-515)"
         style="fill:#ffffff">
        <g
           id="slice"
           transform="translate(215,119)"
           style="fill:#ffffff" />
        <path
           d="m 513.08401,518.79955 c 0.006,-0.27419 0.003,-0.54081 -0.009,-0.79619 -0.004,-0.0865 -0.01,-0.50383 -0.01,-0.50385 v 0 c 0,-0.90155 -2.00026,-1.40162 -4.55525,-1.40162 -2.55499,0 -4.55525,0.50007 -4.55525,1.40162 0,0 -0.006,0.41736 -0.01,0.50385 -0.0462,0.99133 0.0321,2.15187 0.33751,3.26788 0.607,2.21799 1.96138,3.58675 4.22754,3.58675 1.59725,0 2.74154,-0.67997 3.49044,-1.85799 2.03277,-0.0367 4.3635,-1.83399 3.66218,-3.42626 -0.28234,-0.641 -0.79836,-0.95488 -1.44001,-0.98093 -0.35352,-0.0144 -0.71946,0.0579 -1.08065,0.1858 -0.0197,0.007 -0.039,0.014 -0.0577,0.021 z m -0.0452,0.78215 c -0.0518,0.55633 -0.1479,1.12856 -0.30142,1.68954 -0.0967,0.35338 -0.21239,0.68519 -0.34771,0.99335 1.50041,-0.22689 3.0301,-1.50323 2.63143,-2.40837 -0.16837,-0.38227 -0.43996,-0.54747 -0.82708,-0.56319 -0.25161,-0.0102 -0.53419,0.0456 -0.81825,0.14619 -0.15377,0.0544 -0.27225,0.10827 -0.33697,0.14248 z m -0.65505,-1.28327 c 0.0186,0.8649 -0.0659,1.85077 -0.32233,2.78782 -0.53178,1.94306 -1.64779,3.07093 -3.55161,3.07093 -1.90383,0 -3.01983,-1.12787 -3.55159,-3.07093 -0.25644,-0.93705 -0.34091,-1.92292 -0.32233,-2.78782 0.79661,0.39286 2.21888,0.60269 3.87392,0.60269 1.65503,0 3.07731,-0.20983 3.87391,-0.60269 z m -7.72839,-0.79892 c 0,-0.25959 1.76489,-0.70081 3.85445,-0.70081 2.08955,0 3.85444,0.44122 3.85444,0.70081 0,0.25958 -1.76489,0.7008 -3.85444,0.7008 -2.08956,0 -3.85445,-0.44122 -3.85445,-0.7008 z"
           id="food-drink-cup-coffee-tea-drink-outline-stroke"
           inkscape:connector-curvature="0"
           style="fill:#ffffff;stroke-width:0.70080787"
           sodipodi:nodetypes="ccccsscssccscccccsscccssscscsssss" />
      </g>
    </g>
  </g>
  <g
     inkscape:groupmode="layer"
     id="layer4"
     inkscape:label="Laag 4"
     style="display:none">
    <path
       d="m 30.493647,62.670153 c 0,-0.557501 0.5575,-0.557501 0.5575,-0.557501 2.229877,0 0,1.115002 -0.5575,2.229857 5.57465,1.115 11.70678,0.5575 17.281432,-0.557502 1.672292,1.115002 3.902274,2.229877 6.13213,2.787336 -6.13213,2.787336 -13.379178,3.902254 -20.068768,2.787336 -2.229855,-0.557501 -5.574651,-0.557501 -7.247047,-3.344795 -1.115002,-2.229877 2.229855,-3.344794 3.902253,-3.344815 z M 28.26379,54.308166 v 0 c 1.115002,0 3.344796,-1.115002 1.672292,0.557501 0,0.557501 -2.229877,1.115002 -1.115002,1.672292 7.247049,1.672292 14.494118,1.115002 21.741166,-0.557501 1.115001,1.672292 2.787336,2.229857 5.017191,2.787336 -8.361986,2.229856 -16.723973,3.344794 -25.085959,2.229856 -2.229856,-0.557501 -5.017192,-0.557501 -6.13213,-2.787335 -0.557501,-2.229857 2.229877,-3.344796 3.902274,-3.902254 z M 56.694545,19.745282 v 0 c 0.5575,0.5575 2.787315,0 1.115002,0.5575 -3.902275,3.344794 -9.476926,5.574651 -12.264262,10.591843 -1.115001,3.344794 2.229857,5.57465 3.344795,8.919446 1.672292,3.902274 -1.672292,7.247068 -5.017191,9.476924 -1.115002,0.557502 -3.902254,1.115002 -1.672292,-1.115002 2.229855,-1.672292 2.787336,-4.459711 1.115001,-6.689588 -3.344795,-3.344796 -5.017191,-7.804507 -2.229878,-11.706782 3.344796,-5.574651 9.476926,-7.804507 15.609057,-10.034384 z M 22.689119,67.687345 v 0 c 1.672292,0 3.344794,1.115002 4.459733,2.229856 -2.787335,-0.557502 -6.132131,0 -8.919446,1.672292 1.115002,0.5575 2.787315,0.5575 3.902254,1.115002 11.149322,1.672292 22.856104,1.115002 33.447947,0 2.787336,-0.557502 5.57465,-0.557502 6.689588,-2.787336 0.557502,-0.557501 -1.672292,-1.672292 -1.115001,-1.672292 1.672292,0 4.459733,1.115001 3.344795,3.344794 -2.229856,2.787336 -6.68959,3.344795 -10.034384,3.902274 -12.821699,2.229857 -26.758357,2.229857 -39.580056,-0.5575 -1.672293,0 -3.344797,-1.672292 -2.229878,-3.344794 2.787337,-2.787336 6.68959,-3.344796 10.034385,-3.902275 z M 31.051105,45.94618 v 0 c 1.115002,-0.557502 1.672504,0 2.787336,0.5575 -2.229855,1.115002 -5.017192,1.115002 -7.247047,2.229878 -0.557502,0.557501 -2.229877,1.115001 -1.115002,1.115001 6.689588,1.115002 13.379178,0.557501 20.068767,0 3.902254,0 7.804528,-1.672292 12.26424,-1.115001 -1.115002,1.115001 -2.229856,1.672292 -3.902253,2.229877 -2.787337,1.672292 -6.689589,1.672292 -10.591842,2.229856 -7.24707,0.5575 -15.609056,1.115002 -22.856104,-1.115002 -1.672292,0 -2.787336,-1.672502 -1.672292,-2.787336 3.344794,-2.229856 7.804528,-3.344794 12.264239,-3.344773 z m 30.103152,-1.115002 c 3.902274,0 7.804528,3.344794 6.689589,7.804528 -1.672292,5.017192 -7.247048,7.247048 -11.706781,8.361986 -2.787314,1.115002 -3.344795,0.557502 -1.115002,-1.115002 3.344795,-2.229856 6.689589,-3.902253 8.361987,-7.247047 1.115002,-3.344795 -2.229877,-6.132131 -5.017192,-5.017192 -1.115002,0 -3.344795,1.672292 -2.787336,0.5575 1.115002,-2.229856 3.344794,-3.344794 5.574651,-3.344794 z M 46.660161,5.8085804 v 0 c 0,-1.115002 0,-1.672292 -0.557501,-2.7873358 1.115002,1.1150019 2.787315,2.2298772 3.344795,3.9022749 2.229856,5.0171915 -0.557501,10.5918435 -3.902275,14.4940965 -3.344795,3.902274 -9.476925,6.13213 -10.591842,12.264261 -0.557501,5.57465 5.574651,8.919445 6.689589,14.494095 -2.229877,-1.672292 -4.459734,-3.902253 -6.13213,-5.57465 -3.344796,-3.344795 -6.68959,-7.804528 -5.017192,-12.264241 2.229856,-5.574671 7.804528,-8.361986 12.264239,-12.26426 3.344795,-2.787315 5.574673,-7.804507 3.902275,-12.2642406 z M 66.728929,72.704474 v 0 c 0.5575,-0.557502 1.672292,-3.344795 1.115002,-1.115002 1.115002,3.344794 -2.229877,5.574651 -5.017192,6.13213 -9.476926,3.344794 -19.51131,3.344794 -29.545693,2.787315 -4.459733,-0.5575 -9.476925,-0.5575 -12.82172,-3.902253 12.26424,1.672292 24.528501,2.229877 36.235282,0 3.344795,-1.115002 7.804507,-1.672292 10.034384,-3.902254 z"
       id="path4"
       inkscape:connector-curvature="0"
       style="fill:#ffffff;fill-opacity:1;stroke-width:5.57465744" />
  </g>
</svg>
