<?xml version="1.0" encoding="UTF-8" standalone="no"?>
<svg
   xmlns:dc="http://purl.org/dc/elements/1.1/"
   xmlns:cc="http://creativecommons.org/ns#"
   xmlns:rdf="http://www.w3.org/1999/02/22-rdf-syntax-ns#"
   xmlns:svg="http://www.w3.org/2000/svg"
   xmlns="http://www.w3.org/2000/svg"
   id="svg4791"
   version="1.1"
   viewBox="0 0 87.690468 87.690468"
   height="87.690468mm"
   width="87.690468mm">
  <defs
     id="defs4785" />
  <metadata
     id="metadata4788">
    <rdf:RDF>
      <cc:Work
         rdf:about="">
        <dc:format>image/svg+xml</dc:format>
        <dc:type
           rdf:resource="http://purl.org/dc/dcmitype/StillImage" />
        <dc:title></dc:title>
      </cc:Work>
    </rdf:RDF>
  </metadata>
  <g
     transform="translate(-26.458332,-84.577377)"
     id="layer1">
    <path
       id="rect4793"
       transform="matrix(0.26458333,0,0,0.26458333,26.458332,84.577377)"
       d="M 0 0 L 0 331.42773 L 331.42773 331.42773 L 331.42773 0 L 0 0 z "
       style="fill:#3e4837;fill-opacity:1;stroke-width:0.99999994" />
  </g>
  <g
     style="display:inline"
     id="layer2">
    <text
       id="text5341"
       y="79.908623"
       x="3.3085656"
       style="font-style:normal;font-variant:normal;font-weight:normal;font-stretch:normal;font-size:50.79999924px;line-height:1.25;font-family:Consolas;-inkscape-font-specification:Consolas;letter-spacing:0px;word-spacing:0px;fill:#ffffff;fill-opacity:1;stroke:none;stroke-width:0.26458332"
       xml:space="preserve"><tspan
         style="font-size:46.21388626px;letter-spacing:0.79374999px;fill:#ffffff;stroke-width:0.26458332"
         y="79.908623"
         x="3.3085656"
         id="tspan5339">E</tspan></text>
  </g>
  <g
     style="display:none"
     id="layer3">
    <g
       transform="matrix(6.2577196,0,0,5.7436273,1.824509,23.90025)"
       style="fill:#ffffff;fill-rule:evenodd;stroke:none;stroke-width:1"
       id="miu">
      <g
         style="fill:#ffffff"
         transform="translate(-503,-515)"
         id="Artboard-1">
        <g
           style="fill:#ffffff"
           transform="translate(215,119)"
           id="slice" />
        <path
           style="fill:#ffffff;stroke-width:0.70080787"
           id="food-drink-cup-coffee-tea-drink-outline-stroke"
           d="m 513.08401,518.79955 c 0.006,-0.27419 0.003,-0.54081 -0.009,-0.79619 -0.004,-0.0865 -0.01,-0.50383 -0.01,-0.50385 v 0 c 0,-0.90155 -2.00026,-1.40162 -4.55525,-1.40162 -2.55499,0 -4.55525,0.50007 -4.55525,1.40162 0,0 -0.006,0.41736 -0.01,0.50385 -0.0462,0.99133 0.0321,2.15187 0.33751,3.26788 0.607,2.21799 1.96138,3.58675 4.22754,3.58675 1.59725,0 2.74154,-0.67997 3.49044,-1.85799 2.03277,-0.0367 4.3635,-1.83399 3.66218,-3.42626 -0.28234,-0.641 -0.79836,-0.95488 -1.44001,-0.98093 -0.35352,-0.0144 -0.71946,0.0579 -1.08065,0.1858 -0.0197,0.007 -0.039,0.014 -0.0577,0.021 z m -0.0452,0.78215 c -0.0518,0.55633 -0.1479,1.12856 -0.30142,1.68954 -0.0967,0.35338 -0.21239,0.68519 -0.34771,0.99335 1.50041,-0.22689 3.0301,-1.50323 2.63143,-2.40837 -0.16837,-0.38227 -0.43996,-0.54747 -0.82708,-0.56319 -0.25161,-0.0102 -0.53419,0.0456 -0.81825,0.14619 -0.15377,0.0544 -0.27225,0.10827 -0.33697,0.14248 z m -0.65505,-1.28327 c 0.0186,0.8649 -0.0659,1.85077 -0.32233,2.78782 -0.53178,1.94306 -1.64779,3.07093 -3.55161,3.07093 -1.90383,0 -3.01983,-1.12787 -3.55159,-3.07093 -0.25644,-0.93705 -0.34091,-1.92292 -0.32233,-2.78782 0.79661,0.39286 2.21888,0.60269 3.87392,0.60269 1.65503,0 3.07731,-0.20983 3.87391,-0.60269 z m -7.72839,-0.79892 c 0,-0.25959 1.76489,-0.70081 3.85445,-0.70081 2.08955,0 3.85444,0.44122 3.85444,0.70081 0,0.25958 -1.76489,0.7008 -3.85444,0.7008 -2.08956,0 -3.85445,-0.44122 -3.85445,-0.7008 z" />
      </g>
    </g>
  </g>
  <g
     style="display:none"
     id="layer4">
    <path
       style="fill:#ffffff;fill-opacity:1;stroke-width:5.57465744"
       id="path4"
       d="m 30.493647,62.670153 c 0,-0.557501 0.5575,-0.557501 0.5575,-0.557501 2.229877,0 0,1.115002 -0.5575,2.229857 5.57465,1.115 11.70678,0.5575 17.281432,-0.557502 1.672292,1.115002 3.902274,2.229877 6.13213,2.787336 -6.13213,2.787336 -13.379178,3.902254 -20.068768,2.787336 -2.229855,-0.557501 -5.574651,-0.557501 -7.247047,-3.344795 -1.115002,-2.229877 2.229855,-3.344794 3.902253,-3.344815 z M 28.26379,54.308166 v 0 c 1.115002,0 3.344796,-1.115002 1.672292,0.557501 0,0.557501 -2.229877,1.115002 -1.115002,1.672292 7.247049,1.672292 14.494118,1.115002 21.741166,-0.557501 1.115001,1.672292 2.787336,2.229857 5.017191,2.787336 -8.361986,2.229856 -16.723973,3.344794 -25.085959,2.229856 -2.229856,-0.557501 -5.017192,-0.557501 -6.13213,-2.787335 -0.557501,-2.229857 2.229877,-3.344796 3.902274,-3.902254 z M 56.694545,19.745282 v 0 c 0.5575,0.5575 2.787315,0 1.115002,0.5575 -3.902275,3.344794 -9.476926,5.574651 -12.264262,10.591843 -1.115001,3.344794 2.229857,5.57465 3.344795,8.919446 1.672292,3.902274 -1.672292,7.247068 -5.017191,9.476924 -1.115002,0.557502 -3.902254,1.115002 -1.672292,-1.115002 2.229855,-1.672292 2.787336,-4.459711 1.115001,-6.689588 -3.344795,-3.344796 -5.017191,-7.804507 -2.229878,-11.706782 3.344796,-5.574651 9.476926,-7.804507 15.609057,-10.034384 z M 22.689119,67.687345 v 0 c 1.672292,0 3.344794,1.115002 4.459733,2.229856 -2.787335,-0.557502 -6.132131,0 -8.919446,1.672292 1.115002,0.5575 2.787315,0.5575 3.902254,1.115002 11.149322,1.672292 22.856104,1.115002 33.447947,0 2.787336,-0.557502 5.57465,-0.557502 6.689588,-2.787336 0.557502,-0.557501 -1.672292,-1.672292 -1.115001,-1.672292 1.672292,0 4.459733,1.115001 3.344795,3.344794 -2.229856,2.787336 -6.68959,3.344795 -10.034384,3.902274 -12.821699,2.229857 -26.758357,2.229857 -39.580056,-0.5575 -1.672293,0 -3.344797,-1.672292 -2.229878,-3.344794 2.787337,-2.787336 6.68959,-3.344796 10.034385,-3.902275 z M 31.051105,45.94618 v 0 c 1.115002,-0.557502 1.672504,0 2.787336,0.5575 -2.229855,1.115002 -5.017192,1.115002 -7.247047,2.229878 -0.557502,0.557501 -2.229877,1.115001 -1.115002,1.115001 6.689588,1.115002 13.379178,0.557501 20.068767,0 3.902254,0 7.804528,-1.672292 12.26424,-1.115001 -1.115002,1.115001 -2.229856,1.672292 -3.902253,2.229877 -2.787337,1.672292 -6.689589,1.672292 -10.591842,2.229856 -7.24707,0.5575 -15.609056,1.115002 -22.856104,-1.115002 -1.672292,0 -2.787336,-1.672502 -1.672292,-2.787336 3.344794,-2.229856 7.804528,-3.344794 12.264239,-3.344773 z m 30.103152,-1.115002 c 3.902274,0 7.804528,3.344794 6.689589,7.804528 -1.672292,5.017192 -7.247048,7.247048 -11.706781,8.361986 -2.787314,1.115002 -3.344795,0.557502 -1.115002,-1.115002 3.344795,-2.229856 6.689589,-3.902253 8.361987,-7.247047 1.115002,-3.344795 -2.229877,-6.132131 -5.017192,-5.017192 -1.115002,0 -3.344795,1.672292 -2.787336,0.5575 1.115002,-2.229856 3.344794,-3.344794 5.574651,-3.344794 z M 46.660161,5.8085804 v 0 c 0,-1.115002 0,-1.672292 -0.557501,-2.7873358 1.115002,1.1150019 2.787315,2.2298772 3.344795,3.9022749 2.229856,5.0171915 -0.557501,10.5918435 -3.902275,14.4940965 -3.344795,3.902274 -9.476925,6.13213 -10.591842,12.264261 -0.557501,5.57465 5.574651,8.919445 6.689589,14.494095 -2.229877,-1.672292 -4.459734,-3.902253 -6.13213,-5.57465 -3.344796,-3.344795 -6.68959,-7.804528 -5.017192,-12.264241 2.229856,-5.574671 7.804528,-8.361986 12.264239,-12.26426 3.344795,-2.787315 5.574673,-7.804507 3.902275,-12.2642406 z M 66.728929,72.704474 v 0 c 0.5575,-0.557502 1.672292,-3.344795 1.115002,-1.115002 1.115002,3.344794 -2.229877,5.574651 -5.017192,6.13213 -9.476926,3.344794 -19.51131,3.344794 -29.545693,2.787315 -4.459733,-0.5575 -9.476925,-0.5575 -12.82172,-3.902253 12.26424,1.672292 24.528501,2.229877 36.235282,0 3.344795,-1.115002 7.804507,-1.672292 10.034384,-3.902254 z" />
  </g>
</svg>
