<?xml version="1.0" encoding="UTF-8" standalone="no"?>
<!-- Generator: Adobe Illustrator 18.0.0, SVG Export Plug-In . SVG Version: 6.00 Build 0)  -->

<svg
   xmlns:dc="http://purl.org/dc/elements/1.1/"
   xmlns:cc="http://creativecommons.org/ns#"
   xmlns:rdf="http://www.w3.org/1999/02/22-rdf-syntax-ns#"
   xmlns:svg="http://www.w3.org/2000/svg"
   xmlns="http://www.w3.org/2000/svg"
   xmlns:sodipodi="http://sodipodi.sourceforge.net/DTD/sodipodi-0.dtd"
   xmlns:inkscape="http://www.inkscape.org/namespaces/inkscape"
   version="1.1"
   id="Capa_1"
   x="0px"
   y="0px"
   viewBox="0 0 315.58 315.58"
   style="enable-background:new 0 0 315.58 315.58;"
   xml:space="preserve"
   sodipodi:docname="gif.svg"
   inkscape:version="0.92.2 (5c3e80d, 2017-08-06)"><metadata
     id="metadata43"><rdf:RDF><cc:Work
         rdf:about=""><dc:format>image/svg+xml</dc:format><dc:type
           rdf:resource="http://purl.org/dc/dcmitype/StillImage" /><dc:title></dc:title></cc:Work></rdf:RDF></metadata><defs
     id="defs41" /><sodipodi:namedview
     pagecolor="#ffffff"
     bordercolor="#666666"
     borderopacity="1"
     objecttolerance="10"
     gridtolerance="10"
     guidetolerance="10"
     inkscape:pageopacity="0"
     inkscape:pageshadow="2"
     inkscape:window-width="1920"
     inkscape:window-height="1017"
     id="namedview39"
     showgrid="false"
     inkscape:zoom="0.74782943"
     inkscape:cx="157.78999"
     inkscape:cy="157.78999"
     inkscape:window-x="-8"
     inkscape:window-y="-8"
     inkscape:window-maximized="1"
     inkscape:current-layer="Capa_1" /><g
     id="g6"><path
       d="M310.58,33.331H5c-2.761,0-5,2.238-5,5v238.918c0,2.762,2.239,5,5,5h305.58c2.763,0,5-2.238,5-5V38.331   C315.58,35.569,313.343,33.331,310.58,33.331z M285.58,242.386l-68.766-71.214c-0.76-0.785-2.003-0.836-2.823-0.114l-47.695,41.979   l-60.962-75.061c-0.396-0.49-0.975-0.77-1.63-0.756c-0.631,0.013-1.22,0.316-1.597,0.822L30,234.797V63.331h255.58V242.386z"
       id="path2"
       style="stroke:#000000;stroke-opacity:1;fill:#4d4d4d" /><path
       d="M210.059,135.555c13.538,0,24.529-10.982,24.529-24.531c0-13.545-10.991-24.533-24.529-24.533   c-13.549,0-24.528,10.988-24.528,24.533C185.531,124.572,196.511,135.555,210.059,135.555z"
       id="path4"
       style="fill:#666666" /></g><g
     id="g8" /><g
     id="g10" /><g
     id="g12" /><g
     id="g14" /><g
     id="g16" /><g
     id="g18" /><g
     id="g20" /><g
     id="g22" /><g
     id="g24" /><g
     id="g26" /><g
     id="g28" /><g
     id="g30" /><g
     id="g32" /><g
     id="g34" /><g
     id="g36" /></svg>