<?xml version="1.0" encoding="UTF-8" standalone="no"?>
<svg
   xmlns:dc="http://purl.org/dc/elements/1.1/"
   xmlns:cc="http://creativecommons.org/ns#"
   xmlns:rdf="http://www.w3.org/1999/02/22-rdf-syntax-ns#"
   xmlns:svg="http://www.w3.org/2000/svg"
   xmlns="http://www.w3.org/2000/svg"
   height="56"
   width="56"
   xml:space="preserve"
   viewBox="0 0 56 56"
   y="0px"
   x="0px"
   id="Capa_1"
   version="1.1"><metadata
     id="metadata61"><rdf:RDF><cc:Work
         rdf:about=""><dc:format>image/svg+xml</dc:format><dc:type
           rdf:resource="http://purl.org/dc/dcmitype/StillImage" /><dc:title></dc:title></cc:Work></rdf:RDF></metadata><defs
     id="defs59" /><g
     transform="translate(-6.4731352)"
     id="g24"><path
       id="path2"
       d="m 43.510424,-1.9485206e-8 h -29.022 c -0.808,0 -1.463,0.654999999485206 -1.463,1.926000019485206 V 55 c 0,0.345 0.655,1 1.463,1 h 40.074 c 0.808,0 1.463,-0.655 1.463,-1 V 12.978 c 0,-0.696 -0.093,-0.92 -0.257,-1.085 l -11.636,-11.63600002 c -0.165,-0.164 -0.389,-0.256999999485206 -0.622,-0.256999999485206 z"
       style="fill:#ff6600" /><polygon
       transform="translate(6.5254237)"
       id="polygon4"
       points="37.5,12 49.349,12 37.5,0.151 "
       style="fill:#aa4400" /><g
       id="g16" /><g
       id="g22" /></g><g
     transform="translate(-6.4731352)"
     id="g26" /><g
     transform="translate(-6.4731352)"
     id="g28" /><g
     transform="translate(-6.4731352)"
     id="g30" /><g
     transform="translate(-6.4731352)"
     id="g32" /><g
     transform="translate(-6.4731352)"
     id="g34" /><g
     transform="translate(-6.4731352)"
     id="g36" /><g
     transform="translate(-6.4731352)"
     id="g38" /><g
     transform="translate(-6.4731352)"
     id="g40" /><g
     transform="translate(-6.4731352)"
     id="g42" /><g
     transform="translate(-6.4731352)"
     id="g44" /><g
     transform="translate(-6.4731352)"
     id="g46" /><g
     transform="translate(-6.4731352)"
     id="g48" /><g
     transform="translate(-6.4731352)"
     id="g50" /><g
     transform="translate(-6.4731352)"
     id="g52" /><g
     transform="translate(-6.4731352)"
     id="g54" /><g
     transform="translate(-6.4731352)"
     style="display:inline"
     id="layer1" /><g
     transform="translate(-6.4731352)"
     style="display:none"
     id="layer2"><path
       id="path8"
       d="m 17.588983,43.195186 v 10.076 h -1.641 v -4.539 h -4.361 v 4.539 h -1.668 v -10.076 h 1.668 v 4.416 h 4.361 v -4.416 z"
       style="fill:#ffffff" /><path
       id="path10"
       d="m 27.240983,43.195186 v 1.121 h -3.007 v 8.955 h -1.654 v -8.955 h -3.008 v -1.121 z"
       style="fill:#ffffff" /><path
       id="path12"
       d="m 36.838983,43.195186 h 1.668 v 10.076 h -1.668 v -6.932 l -2.256,5.605 h -1.449 l -2.27,-5.605 v 6.932 h -1.668 v -10.076 h 1.668 l 2.994,6.891 z"
       style="fill:#ffffff" /><path
       id="path14"
       d="m 42.703983,43.195186 v 8.832 h 4.635 v 1.244 h -6.303 v -10.076 z"
       style="fill:#ffffff" /></g><g
     style="display:none"
     transform="translate(-6.4731352)"
     id="layer3"><text
       id="text947"
       y="24.271313"
       x="16.990271"
       style="font-style:normal;font-variant:normal;font-weight:bold;font-stretch:normal;font-size:16px;line-height:1.25;font-family:'Open Sans';-inkscape-font-specification:'Open Sans Bold';letter-spacing:0px;word-spacing:0px;fill:#ffffff;fill-opacity:1;stroke:none"
       xml:space="preserve"><tspan
         y="38.448097"
         x="16.990271"
         id="tspan945" /></text>
<text
       id="text951"
       y="53.508476"
       x="20.152542"
       style="font-style:normal;font-variant:normal;font-weight:bold;font-stretch:normal;font-size:16px;line-height:1.25;font-family:'Open Sans';-inkscape-font-specification:'Open Sans Bold';letter-spacing:0px;word-spacing:0px;fill:#000000;fill-opacity:1;stroke:none"
       xml:space="preserve"><tspan
         style="font-size:14.66666698px;fill:#ffffff;fill-opacity:1"
         y="53.508476"
         x="20.152542"
         id="tspan949">XUL</tspan></text>
</g><g
     id="layer4" /><g
     id="layer5"><polygon
       style="fill:#ebebeb"
       points="255.843,176.305 142.132,176.305 143.219,188.488 154.38,313.627 256,313.627 256,268.217 195.91,268.217 191.76,221.716 256,221.716 256,176.305 "
       id="polygon3032"
       transform="matrix(0.10093198,0,0,0.10093198,2.063149,5.3159731)" /><polygon
       style="fill:#ebebeb"
       points="256,433.399 256,386.153 255.801,386.206 205.227,372.55 201.994,336.333 177.419,336.333 156.409,336.333 162.771,407.634 255.791,433.457 "
       id="polygon3034"
       transform="matrix(0.10093198,0,0,0.10093198,2.063149,5.3159731)" /><polygon
       style="fill:#ffffff"
       points="311.761,313.627 306.49,372.521 255.843,386.191 255.843,433.435 348.937,407.634 349.62,399.962 360.291,280.411 361.399,268.217 349.162,268.217 255.843,268.217 255.843,313.627 "
       id="polygon3044"
       transform="matrix(0.10093198,0,0,0.10093198,2.063149,5.3159731)" /><polygon
       style="fill:#ffffff"
       points="366.442,211.509 368.511,188.488 369.597,176.305 255.843,176.305 255.843,204.509 255.843,221.605 255.843,221.716 365.385,221.716 365.531,221.716 "
       id="polygon3046"
       transform="matrix(0.10093198,0,0,0.10093198,2.063149,5.3159731)" /></g></svg>