<?xml version="1.0" encoding="UTF-8" standalone="no"?>
<svg
   xmlns:dc="http://purl.org/dc/elements/1.1/"
   xmlns:cc="http://creativecommons.org/ns#"
   xmlns:rdf="http://www.w3.org/1999/02/22-rdf-syntax-ns#"
   xmlns:svg="http://www.w3.org/2000/svg"
   xmlns="http://www.w3.org/2000/svg"
   xmlns:sodipodi="http://sodipodi.sourceforge.net/DTD/sodipodi-0.dtd"
   xmlns:inkscape="http://www.inkscape.org/namespaces/inkscape"
   height="56"
   width="56"
   xml:space="preserve"
   viewBox="0 0 56 56"
   y="0px"
   x="0px"
   id="Capa_1"
   version="1.1"
   sodipodi:docname="less.svg"
   inkscape:version="0.92.2 (5c3e80d, 2017-08-06)"><sodipodi:namedview
     pagecolor="#ffffff"
     bordercolor="#666666"
     borderopacity="1"
     objecttolerance="10"
     gridtolerance="10"
     guidetolerance="10"
     inkscape:pageopacity="0"
     inkscape:pageshadow="2"
     inkscape:window-width="1920"
     inkscape:window-height="1017"
     id="namedview37"
     showgrid="false"
     inkscape:zoom="4.2142857"
     inkscape:cx="28"
     inkscape:cy="28"
     inkscape:window-x="-8"
     inkscape:window-y="-8"
     inkscape:window-maximized="1"
     inkscape:current-layer="Capa_1" /><metadata
     id="metadata61"><rdf:RDF><cc:Work
         rdf:about=""><dc:format>image/svg+xml</dc:format><dc:type
           rdf:resource="http://purl.org/dc/dcmitype/StillImage" /><dc:title /></cc:Work></rdf:RDF></metadata><defs
     id="defs59" /><g
     transform="translate(-6.4731352)"
     id="g24"><path
       id="path2"
       d="m 43.510424,-1.9485206e-8 h -29.022 c -0.808,0 -1.463,0.654999999485206 -1.463,1.926000019485206 V 55 c 0,0.345 0.655,1 1.463,1 h 40.074 c 0.808,0 1.463,-0.655 1.463,-1 V 12.978 c 0,-0.696 -0.093,-0.92 -0.257,-1.085 l -11.636,-11.63600002 c -0.165,-0.164 -0.389,-0.256999999485206 -0.622,-0.256999999485206 z"
       style="fill:#87aade" /><polygon
       transform="translate(6.5254237)"
       id="polygon4"
       points="37.5,12 49.349,12 37.5,0.151 "
       style="fill:#214478" /><g
       id="g16" /><g
       id="g22" /></g><g
     transform="translate(-6.4731352)"
     id="g26" /><g
     transform="translate(-6.4731352)"
     id="g28" /><g
     transform="translate(-6.4731352)"
     id="g30" /><g
     transform="translate(-6.4731352)"
     id="g32" /><g
     transform="translate(-6.4731352)"
     id="g34" /><g
     transform="translate(-6.4731352)"
     id="g36" /><g
     transform="translate(-6.4731352)"
     id="g38" /><g
     transform="translate(-6.4731352)"
     id="g40" /><g
     transform="translate(-6.4731352)"
     id="g42" /><g
     transform="translate(-6.4731352)"
     id="g44" /><g
     transform="translate(-6.4731352)"
     id="g46" /><g
     transform="translate(-6.4731352)"
     id="g48" /><g
     transform="translate(-6.4731352)"
     id="g50" /><g
     transform="translate(-6.4731352)"
     id="g52" /><g
     transform="translate(-6.4731352)"
     id="g54" /><g
     transform="translate(-6.4731352)"
     style="display:inline"
     id="layer1" /><g
     transform="translate(-6.4731352)"
     style="display:none"
     id="layer2"><path
       id="path8"
       d="m 17.588983,43.195186 v 10.076 h -1.641 v -4.539 h -4.361 v 4.539 h -1.668 v -10.076 h 1.668 v 4.416 h 4.361 v -4.416 z"
       style="fill:#ffffff" /><path
       id="path10"
       d="m 27.240983,43.195186 v 1.121 h -3.007 v 8.955 h -1.654 v -8.955 h -3.008 v -1.121 z"
       style="fill:#ffffff" /><path
       id="path12"
       d="m 36.838983,43.195186 h 1.668 v 10.076 h -1.668 v -6.932 l -2.256,5.605 h -1.449 l -2.27,-5.605 v 6.932 h -1.668 v -10.076 h 1.668 l 2.994,6.891 z"
       style="fill:#ffffff" /><path
       id="path14"
       d="m 42.703983,43.195186 v 8.832 h 4.635 v 1.244 h -6.303 v -10.076 z"
       style="fill:#ffffff" /></g><g
     style="display:none"
     transform="translate(-6.4731352)"
     id="layer3"><text
       id="text947"
       y="24.271313"
       x="16.990271"
       style="font-style:normal;font-variant:normal;font-weight:bold;font-stretch:normal;font-size:16px;line-height:1.25;font-family:'Open Sans';-inkscape-font-specification:'Open Sans Bold';letter-spacing:0px;word-spacing:0px;fill:#ffffff;fill-opacity:1;stroke:none"
       xml:space="preserve"><tspan
         y="38.448097"
         x="16.990271"
         id="tspan945" /></text>
<text
       id="text951"
       y="53.508476"
       x="20.152542"
       style="font-style:normal;font-variant:normal;font-weight:bold;font-stretch:normal;font-size:16px;line-height:1.25;font-family:'Open Sans';-inkscape-font-specification:'Open Sans Bold';letter-spacing:0px;word-spacing:0px;fill:#000000;fill-opacity:1;stroke:none"
       xml:space="preserve"><tspan
         style="font-size:14.66666698px;fill:#ffffff;fill-opacity:1"
         y="53.508476"
         x="20.152542"
         id="tspan949">XUL</tspan></text>
</g><g
     id="layer4" /><path
     style="fill:#2c5aa0;fill-opacity:1;stroke:none;stroke-width:0.78305084;stroke-miterlimit:4;stroke-dasharray:none;stroke-opacity:1"
     d="M 7.3084746,55.692892 6.7152542,55.39278 6.6549259,28.279832 6.5945975,1.1668817 7.179838,0.5816412 7.7650785,-0.00359929 22.545251,0.05752239 l 14.780173,0.06112168 0.06339,5.98745953 0.06339,5.9874594 5.987458,0.06339 5.987461,0.06339 0.06524,21.118644 c 0.03588,11.615254 0.01174,21.340592 -0.05363,21.611862 -0.06538,0.27127 -0.393407,0.618304 -0.728949,0.771186 C 47.79309,56.13971 8.1365082,56.111798 7.3084806,55.692895 Z"
     id="path4533"
     inkscape:connector-curvature="0" /><path
     style="fill:#162d50;fill-opacity:1;stroke:none;stroke-width:0.78305084;stroke-miterlimit:4;stroke-dasharray:none;stroke-opacity:1"
     d="M 37.681356,6.1120234 V 0.35964023 l 5.694915,5.69120727 c 3.132204,3.1301639 5.694915,5.7187365 5.694915,5.7523835 0,0.03365 -2.562711,0.06118 -5.694915,0.06118 h -5.694915 z"
     id="path4535"
     inkscape:connector-curvature="0" /></svg>